<svg xmlns="http://www.w3.org/2000/svg" width="132.681" height="52.229" viewBox="0 0 132.681 52.229"><defs><style>.a{fill:#a36841}.a,.b,.c{fill-rule:evenodd}.b{fill:#cb9a7a}.c{fill:#eeceb0}</style></defs><path class="a" d="M3.289 39.948C-.695 30.325 6.8 21.139 15.761 18.456a4.838 4.838 0 0 0 1.612-.859 67.326 67.326 0 0 1 9.112-5.918 64.8 64.8 0 0 1 7.729-3.551c1.7-.647 3.369-1.382 5.071-2.026 2.123-.8 4.291-1.48 6.48-2.084a15.372 15.372 0 0 1 2.528-.342c1.387-.139 2.777-.235 4.165-.368 1.86-.178 1.884.181 3.451 1.2a7.6 7.6 0 0 1 1.526 1.25c.442.492 2.653.695 3.278.575.656-.128 1.178-.756 1.84-.637a1.6 1.6 0 0 0 .422-.013c2.171-.242 3.929 2.033 5.383 3.6a11.925 11.925 0 0 1 2.431 4.046 5.616 5.616 0 0 0 .212.525c4.444 9.212-3.37 15.511-9.493 21.965a46.205 46.205 0 0 1-7.774 6.143c-1.191.814-2.415 1.577-3.625 2.364a26.093 26.093 0 0 1-3.234 1.616c-13.875 6.481-36.021 12.282-43.588-6zm128.863-15.122a15.663 15.663 0 0 1-1.954 4.159 31.771 31.771 0 0 1-4.234 5.406c-1.309 1.4-2.7 2.715-4.06 4.068a11.374 11.374 0 0 1-1.626 1.256 40.3 40.3 0 0 1-6.979 3.914 3.272 3.272 0 0 0-.617.343 2.412 2.412 0 0 1-1.706.707.827.827 0 0 0-.335.107 46.059 46.059 0 0 1-9.4 2.379c-1 .148-2.014.272-3.024.379a17.275 17.275 0 0 1-3.822-.08c-1.69-.2-3.114-.116-4.807-.291a12.17 12.17 0 0 1-3.048-1.078c-1.573-.662-3.012-1.583-4.523-2.367a11.941 11.941 0 0 1-2.969-2.385c-12.191-15.744 4.718-32.556 19.556-38.3 1.124-.355 2.244-.741 3.379-1.047a14.536 14.536 0 0 1 4.845-.547c1.86.14 5.14 1.864 6.653 3.118.5.409.6-.141 1.2-.284.754-.179 1.52-.3 2.271-.518a7.9 7.9 0 0 1 3.4-.149 14.061 14.061 0 0 1 3.6 1.109c6.955 3.678 10.057 12.487 8.2 20.1z"/><path class="b" d="M40.566 20.776c-.374-1.2 3.1-2.673 3.816-3.638a31.2 31.2 0 0 0 2.749-1.676 33.446 33.446 0 0 1 7.109-3.55c1.84-.475-.979-1.385-2.848.128-.331.269-4.066 2.233-4.764 2.562-2.228 1.051-3.041.828-5.007 2.8a14.381 14.381 0 0 0-1.945 2.084c-.366.487-1.19 2.645.585 1.536.033-.02.322-.572.387-.7l-.084.459zm66.488-14.635a304.08 304.08 0 0 0-3.5 2.482c-.793.6-2.986 4.914-3.55 6.048-.947 1.9-3.567 2.608-5.412 4.144-.988.822-1.669.754-1.669 2.171 1.4 0 3.479-.555 4.235-1.757a17.636 17.636 0 0 1 3.072-3.095c1.39-.621 2.287-3.155 3.234-4.178a33.9 33.9 0 0 0 3.642-4.732c.14-.22.541-1.057.2-1.084zm17.73 3.471c0 4.213 3.55 9.494-.669 15.088-1.925 2.552-3.789 6.182-6.824 7.482-2.3.987-4.686 2.474-7.493 3.054-1.866.387-3.773 1.882-7.237 2.275-4.962.563-13.337 2.306-17.652-.087-3.985-2.211-5.874-4.955-7.459-9.412-.806-2.267 2.289-7.455 3.857-9.233 2.912-3.3 1.024-3.594 5.683-5.97 1.954-1 7.517-5.88 8.211-1.781.105.625 1.732 2.823-1.6 4.317-1.652.742-9.345 5.115-9.924 6.121-.964 1.673-5.685 3.909-3.277 8.419 3.266 6.117 3.92 1.241 9.554 5.253 1.579 1.125 5.5 2.124 5.777-.168.351-2.859.309-7.935 4.426-6.267a5.682 5.682 0 0 1 1.5 1.962c1.781.616-2.492-8.531 4.794-4.439.029.016 7.164 1.515 7.807.313 1.869-3.492-6.078-7.951-1.117-11.072 3.292-2.07 8.375-8.8 11.642-5.855zM6.161 40.66c.1-.139 6.259 1 7.06 1a35.412 35.412 0 0 0 16.158-3.384c4.084-2.026 7.082-1.749 11.24-3.578 3.952-1.739 8.426-3.16 12.043-5.62 1.2-.817 3.831-1.719 4.852-3.211.778-1.139 3.06-3.359.065-5.173-2.925-1.772-16.389 8.415-22.045 9.367a33.589 33.589 0 0 0-10.827 3.758c-3.914 1.97-11.65 6.434-15.668 4.939-4.156-1.545-1.965-6.092-2.141-10.2-.122-2.868 5.571-1.612 6.958-5.62.608-1.757 12.784-6.514 14.853-6.68 1.966-.158 5-2.055 6.11.134.721 1.417.1-4.865 4.06-4.694 2.187.094 8.671-3.616.937-2.666-4.8.591-20.325 7-23.585 10.258-1.087 1.087-7.729 2.563-8.553 3.881-.421.674-2.948 1.038-5.509 6.457-1.327 2.806-2.145 8.686 1.8 9.49 1.1.224 2.1 1.692 2.2 1.55z"/><path class="c" d="M4.855 30.543c3.072-5.613 2.722-5.283 7.86-9.094A10.687 10.687 0 0 0 8 24.471c-.963.881-1.714 1.558-4 5.245-2.223 3.577-1.077 4.363.858.827zm95.65 4.827c-6.1 1.945-5.615 1.948-11.964 1.162a10.682 10.682 0 0 0 5.5 1.063c1.3.028 2.316.054 6.517-1.035 4.076-1.057 3.789-2.417-.052-1.191zM79.73 22.118c.042-.55 2.392-3.347 2.875-4.484a20.508 20.508 0 0 1 2.457-3.137c.647-.24 1.269-.759 1.132.387-.049.414-5.343 6.014-5.91 7.067 0 0-.577.477-.554.167z"/><path d="M94.484 8.398c1.664.276-.574.972-.289.126.045-.134.174-.126.289-.126zm2.365-.572c-1.726-.125.515-1.056.44-.191l-.44.191zm4.848 5.985c1.364.45.932 1.522-.188.363-.167-.172.053-.288.188-.363zm-2.459 4.431c-.321.5-.8-.6-.208-.314.13.062.244.144.208.314zm-1.022.806c-.266.624-.947-.548-.344-.379.189.053.342.159.344.379zm5.841-6.327c-.3.008-1-.682-.493-.717.277-.02 1.014.583.493.717zm-.213-1.769c1.745.522.794 1.416-.2.257-.081-.094.005-.245.2-.257zm.354-1.129c1.459.4 1.5 1.6.91 1.22-.189-.121-1.961-1.161-.91-1.22zm-13.405 15.1c1.136.117.175 1.119-.211.285a.221.221 0 0 1 .211-.285zm1.334-.71c-.119.563-1.2-.182-.82-.409a.613.613 0 0 1 .82.409zm.677-.793c-.268.857-1.556-.687-.817-.6a.923.923 0 0 1 .817.6zm27.705-14.455c1.153.2-.483.732-.305.119.04-.139.186-.106.305-.119zm1.976 7.481c-.4.448-1.487-.5-.945-.514.331-.012.874.145.945.514zm-8.732-2.239c-1.359-.089-2.818-.978-1.6-.728.223.045 3.752.728 1.6.728zm3.96-2.821c.736.039 6.175 1.46 5.68 2.294-.2.329-1.587-.517-1.855-.636l-4.381-1.478.556-.18zm4.622 3.526c-.871-.193-5.708-1.475-5.612-1.878.164-.694 6.917 1.518 5.612 1.878zm-74.93.561c-.054.784-1.089-.432-.372-.4a.409.409 0 0 1 .372.4zm4.8 12.67c-.037.35-.616.006-.4-.219l.4.219zm-.839.852c-.119.409-.673-.234-.328-.268a.286.286 0 0 1 .328.268zm-1.774.828c-.149.57-.848-.339-.32-.371a.34.34 0 0 1 .32.371zm3-9.68c-.907-.02.384-1 .252-.2a.253.253 0 0 1-.252.2zm1.028 7.74c-.538.237-1.4-.92-1.019-.889.3.024 1.04.6 1.019.889zm-1.742-6.423c-.38-.01-1.01-.89-.389-.858.442.023 1.059.872.389.858zm6.84 3.134c-.464 1.033-1.918-.58-1-.589a1.025 1.025 0 0 1 1 .589zm2.128-2.629c-.3 1.076-2.014-.5-.931-.685a.956.956 0 0 1 .931.685zm-4.609 4.034c-1.107-.088-1.175-1.3-.429-1.042.673.237 1.471 1.152.429 1.042zm3.846-6.685c2.728.756 2.409 2.191 1.633 1.6-.28-.212-2.178-1.072-2.046-1.473.057-.171.211-.156.413-.13zm-11.484 4.6c.392-.062 3.27 2.228 2.785 2.695-.372.358-1.673-1.228-2.625-2.145-.118-.113-.451-.443-.16-.55zm6.2 1.011c-.094.928-4.626-2.784-3.552-2.57l3.552 2.57zm-2.231.647l-1.823-1.373c-2.569-1.668-.227-1.453 2.171.754.39.359.1.568-.349.619zm-5.591 4c-.2.626-2.5-2.851-3.635-3.477-.884-.488.079-.806 1.642.741a7.517 7.517 0 0 1 1.993 2.736zm-1.491-5.764c2.127-.323 5.231 4.673 4.561 4.361-.236-.111-1.881-2.693-4.339-4.2-.078-.048-.148-.109-.222-.164zm11.435-4.795c3.78.914 2.619 2.259 1.709 1.706-.439-.267-2.444-.992-2.135-1.544a.354.354 0 0 1 .426-.161zm-1.751 4.852c-.526.1-2.4-1.533-2.621-1.75-.609-.607.489-.566 1.051-.071.6.528 3.746 1.681 1.57 1.822zm-11.114.748c2.337.566 4.538 3.947 4.16 4.216s-1.6-2.01-3.92-3.9c-.087-.07-.22-.1-.24-.311zm12.854-1.446c-1.384-.095-2.114-1.346-3.223-2.022-.724-.441-.8-1.541 1.741.367.506.379 3.309 1.656 1.482 1.656zm-1.4-3.122a13.186 13.186 0 0 1 3.157 1.379c.559.483-.319 1.039-.764.767-.337-.208-3.294-1.328-2.833-2.04.086-.133.238-.129.44-.106zm28.05 11.9c-.534-.175.33-.683.244-.185a.217.217 0 0 1-.244.185zm30.178-3.478c.887.2-.33.795-.163.108.018-.071.076-.1.163-.108zm-29.694-9.291c-.32.031-.689-.461-.291-.506.326-.037.682.453.291.506zm21.873 7.18c1.314.479-.646.555-.122.049a.366.366 0 0 1 .122-.049zm3.686-6.4c.733.157-.269.781-.281.24 0-.176.122-.229.281-.24zm10.6 3.243c-.13.629-1.052-.265-.467-.309.234-.018.457.134.467.309zM92.92 10.848c.974.021-.187 1.031-.26.229-.015-.171.126-.223.26-.229zm-1.631 27.319c.748.093-.227 1.027-.251.354-.006-.179.054-.318.251-.354zm4.147-2.019c.346-.856.606.613.17.457-.2-.073-.162-.253-.17-.457zm12.557-10.324c-.329.005-.654-.56-.216-.551.325.006.641.507.216.551zm-16.1-14.1c1.472.147-.483.85-.239.124.034-.1.128-.116.239-.124zm-9.831 4.285c-.511.584-.992-.409-.424-.33a.488.488 0 0 1 .424.33zm31.1 2.31c-.2.4-1.059-.177-.706-.337a.532.532 0 0 1 .706.337zM97.141 36.394c.985.012-.262 1.384-.234.276a.251.251 0 0 1 .234-.276zm22.93-9.639c.076.722-1.3-.763-.412-.432a.55.55 0 0 1 .412.432zm-41.393 1.186c-.866-.2.773-1.008.518-.37a.579.579 0 0 1-.518.37zm8.285 3.374c-.024 1.029-1.375-.272-.311-.3a.307.307 0 0 1 .311.3zm32.117-7c.237-.012 1.029.6.58.687-.238.044-1-.574-.58-.687zM86.909 16.92c-.12.634-1.1-.112-.682-.354.258-.15.577.091.682.354zm31.472 8.846c-.751.078-.7-1.206 0-.49v.49zm-37.988 4.66c-.786-.08.514-1.173.491-.511a.635.635 0 0 1-.491.511zm32.976.707c-.26.025-1.026-.659-.582-.713.305-.037 1.126.561.582.713zm-15.788-2.23c.363.043 1.127 1.013.561.85-.2-.058-1.135-.734-.561-.85zm-19.117-7.449c-1.41.05.336-1.121.353-.3.005.25-.182.29-.353.3zm36.028 8.1c1.27.315.287 1.384-.2.237-.057-.135.035-.211.2-.237zm-6.056-11.116c-1.611-.629.683-.8.425-.135l-.425.135zm8.45-.588c-.823-.018-.643-.738.051-.47.469.18.453.425-.051.47zm-38.011 1.846c.487.011.646.7.089.686-.469-.009-.555-.642-.089-.686zm29.479-.005c-.178.81-1.393-.467-.871-.454.3.006.76.151.871.454zM87.409 35.82c-.384 1.667-.913-.584-.161-.46.182.03.194.178.161.46zm31.224-13.485c-.068.765-1.6-.632-.856-.524a1.047 1.047 0 0 1 .856.524zm-37.738-4.768c-1.011-.166-.551-.943.187-.49.316.194.174.531-.187.49zm16.007 12.92c.388.017 1 .8.434.856-.376.036-1.065-.789-.434-.856zm.071 4.553c0 .669-1.159-.386-.64-.753.331-.234.637.532.64.753zm-8.167-2.875c-.174.356-1.238.689-1 .095a.575.575 0 0 1 1-.095zm19.351-8.743c1.489.307.967 1.3-.126.287l.126-.287zm-15.28 15.181c.091-.949.853-.93.528.185-.142.486-.5.17-.528-.185zm-13.14-9.483c-1.1 1.582-1.467-.423-.222-.274.128.015.211.092.222.274zm9.175 6.674c-.479 2.2-.872.64-.259-.305.161-.25.246.217.259.305zm-1.279-19.886c-1.017-.2-.574-1 .257-.524.381.22.128.529-.257.524zm12.13 17.523c1.385.179 1.364 1.436.99 1.08-.212-.2-1.018-.765-.99-1.08zm-22.31-10.126c-1.416-.153.6-1.008.715-.449.082.384-.473.418-.715.449zm7.405 10.354c-1.105-.308 1.809-2.522.305-.143a.332.332 0 0 1-.305.143zm25.484-4c-.009.691-1.724-1.013-1.105-1a2.194 2.194 0 0 1 1.105 1zm-15.908 2.986c-2.429-.852.981-1.016.419-.087-.069.113-.2.106-.419.087zm9.538 2.551c-.521.744-1.985-1.8-.73-.988l.73.988zm-24.543-16.1c-.7.023-.464-.822.02-.846.732-.035.894.816-.02.846zm37.365 3.514c1.181.31 2.74 1.6-.175.345-.335-.145-.032-.326.175-.345zm4.228 3.967c-.6 0-1.2-1.3-.511-1.07.276.093 1.258 1.074.511 1.07zm-42.88-1.856c-.007.32-2.229.719-1.587.274.244-.169 1.611-1.118 1.587-.274zm34.062 4.864c-.142.64-2.06-1.511-1.188-1.206a1.86 1.86 0 0 1 1.188 1.206zm2.788-1.682c2.217.916 1.858 2.455-.088.211l.088-.211zm-12.843 5.467c-.337.564-1.7-1.037-1.451-1.2.392-.254 1.373.851 1.451 1.2zm9.634-8.789c1.307.074 1.793 1.113 1.014.844-.185-.064-2.288-.808-1.014-.844zm-26.269 11.2c-.774-.165.351-1.78.8-1.463.175.124-.48 1.426-.8 1.463zm15.826-6.4c-.179.7-2.236-1.29-1.436-1.036.46.146 1.331.5 1.436 1.036zm-1.795 6.543c.017 1.321-1.733-1.1-.7-.933a.892.892 0 0 1 .7.933zm-8.339.4c0-2.434 1.171.953.285.977-.391.011-.29-.734-.3-.977zm15.646-18.72c-1.957-.039-1.991-1.375-1.171-1.016a1.876 1.876 0 0 1 1.171 1.016zm4.575 13.015c1.7.474 1.487 3.191-.19.294a.206.206 0 0 1 .19-.294zm10.076-8.219c.025.5-2.738-.762-2.2-1.1.372-.234 2.011.715 2.2 1.1zm.112 1.5c1.795.377 1.405 1.714.879 1.281-.25-.205-1.694-1.159-.879-1.281zm-43.773 2.6c.016.5-2.2 1.524-1.758.745.154-.273 1.715-1.549 1.758-.745zm11.253 11.662c.219-1.5 1.813-2 .5.525-.219.422-.462-.412-.5-.525zm-3.786-9.415c.009.3-2.219 1.537-2.228 1.529-.463-.439 2.2-2.471 2.228-1.529zm-9.047.176c.344-1.364 3.323-1.619.335.433-.186.128-.344-.049-.335-.433zm17.032 1.11c1.8.294 2.326 2.083 1.04 1.217-.114-.077-2.309-1.264-1.04-1.217zm-7.975-.18c1.257.06-.758 1.825-1.273 1.182-.459-.574.935-1.163 1.273-1.182zm-.868-2.026c-.028.515-3.944 2.558-2.211.766.178-.184 2.177-1.575 2.211-.766zm22.858 1.467c.846.161 3.632 2.8 2.93 3.173-.23.122-1.415-1.835-2.459-2.521-.173-.114-.783-.44-.471-.652zm2.439 4.434c.021.641-.53.791-.675.145-.271-1.207-2-2.963-1.336-2.777a3.824 3.824 0 0 1 2.012 2.632zm7.818-5.258c.014.527-.462.321-.636.07-.186-.27-2.371-2.19-2.108-2.5.465-.546 2.578 1.874 2.744 2.429zm-9.386 5.645c0 .673-.623.262-.763-.118-.313-.849-2.162-3.493-1.425-3.124a4.738 4.738 0 0 1 2.187 3.242zm10.029-16.432a9.447 9.447 0 0 1 4.041 1.525c.821.584.228.757-.311.455-1.566-.876-4.188-1.525-4.158-1.8.024-.207.239-.182.428-.181zM106.5 34.955c-.052.624-.476.294-.659-.088-.847-1.782-3.622-4.408-3.65-4.615.714-.344 4.286 3.322 4.31 4.7zm9.173-16.325c1.7.866 5.217.719 6.725 2.465.487.563-.238.735-.791.3-1.462-1.145-7.026-2.2-5.934-2.766zm-9.231 2.324l7.1 2.82c2.3.751.176 1.165-2.5-.26-.5-.267-5.424-2.049-4.594-2.56zm-1.376 6.917c-1.528-.217-5.247-2.447-6.613-3.4-.492-.343-.946.467-.537.753.829.579 6.022 3.3 5.6 3.9-.149.216-2.366-1.5-2.825-1.723a17.565 17.565 0 0 1-3.2-1.819c-.429-.34-1.213.4-.688.735.275.173 2.077.991 1.831 1.488-.394.795-2.1-1.367-2.456-.829-.5.758.9 1.016.606 1.517-.318.551-.621-.714-1.653.246-.257.24 1.025.905.572 1.284l-1.89-.872c-.5-.178.01-.8-.092-1.173-.215-.8 1.189-2.624 1.657-3.217 1.54-1.954 4.457-2.928 4.915-3.617a4.686 4.686 0 0 0 1.416-.874c3.629-3.575 1.423-3.2 4.757-1.3.852.484-.7.528-1.442.279-.545-.183-1.527-.146-.639.5 2.036 1.48.778 1-.946.682-1.378-.258 3.5 2.01 3.335 2.251-.24.359-3.315-1.1-3.77-1.3-.647-.285-1.415.23-.563.6 4.891 2.147 3.661 2.865 2.52 2.147a8.384 8.384 0 0 0-4.508-1.641c-.891-.017 1.922 1.52 2.625 2.029 0 0 2.456 1.383 1.471 1.287-.806-.078-3.959-1.967-4.7-2.444-.6-.386-1.741.143-.334.995l5.547 3.515zM101.691 6.82c-.54 0-.054.669.1.149.021-.069-.017-.125-.1-.149zm1.7-3.023c-1.053-.012.435 1.443.576.46.037-.253-.227-.459-.576-.46zm-1.16.994c-.291-.523-1.72-.433-1.3.112.261.344 1.291.563 1.3-.112zm-2.8.319c-.948.111-1.17.71-.475.773s2.292.939 2.565.4c.41-.8-1.63-1.175-2.09-1.177zm-2.82 1.663c-.612-.127-5.032 1.89-4.3 2.211 3.042 1.322 2.311.325 5.741 2.442.28.172 1.7-.192-1.99-1.981-.778-.376.472-.816 2.463.453.533.34.889-.435.484-.744-1.692-1.294-.482-1.254.112-.85 1.82 1.236 1.919-.567.992-.524a.824.824 0 0 1-.469-.122 9.246 9.246 0 0 0-3.037-.884zm-13.068 8.082c.23.17 1.108.261.985.7-.095.342-2.783.062-2.008-.931a31.579 31.579 0 0 1 5.487-4.674c3.761-2.685 7.882-5.325 12.533-6.253 1.7-.34 5.492-1.641 6.946-.761 1.688 1.022-3.113 1.927-3.746 2.636-.285.319-.828.095-.781.744.026.355-2.087 2.6-2.35 3.264a22 22 0 0 1-5.077 6.93c-3.2 2.778-9.293 5.743-10.5 9.809-.363 1.219-1.842.123-3.9 1.649-.862.641-1.07-.864 2.476-1.822 1-.269.063-.918-2.912.086-1.558.526-1.3-.366.675-.836a10.127 10.127 0 0 1 2.79-.456c.475.021.846-.873.248-1.054-.169-.051-2.695-.582-1.749-.9.766-.257 2.324.725 2.73.357.765-.692-3.3-2.283-2.008-2.554 1.267-.266 2.753 1.991 3.28 1.546 1.46-1.236-.735-2-1.134-2.335-.912-.772 1.009-.572 1.845.229.922.886 1.226-.022.1-.761-.095-.062-1.923-1.111-1.137-1.151.858-.045 2.66 1.592 3 1.3.692-.591-1.375-1.256-.854-1.843.6-.68 1.451 1.266 2.007.682s-1.542-1.4-1.325-1.852c.546-1.13 2.565 2.206 3.236.638.3-.693-2.1-1.372-1.755-2.014.368-.676 1.875.763 2.2 1.013.476.368 1.2-.149.67-.607-.255-.22-1.647-1.044-1.382-1.479.507-.836 2.219 1.752 2.757 1.153.706-.788.178-.727-1.643-2.054-1.011-.736.534-.622 1.119-.271s1.508 1.2 2.128.519c.864-.943-2.567-1.247-1.655-1.864.738-.5 3.043 1.288 2.668.451-.594-1.324-6.5-3.371-8.245-1.938-.306.251 2.74.763-.436 1.475a1.48 1.48 0 0 0-.828.473c-.149.164-.493-.155-1.343.41l-1.63.8c-.387.155-.359.681-.726.831a1.57 1.57 0 0 0-.754.709zm28.13-8.667c-.318.24-.855.011.346.966.184.147 1.049.038.814-.208a2.083 2.083 0 0 0-1.161-.758zm-21.126 21.78c-.347.278-.143 3.52.643 3.381l-.56-3.249c0-.038-.045-.074-.083-.132zm18.929-21.46c-1.548 0 .515 1.681 1.363 1.184.517-.3-1.1-1.185-1.363-1.184zm-7.758 6.671c-.707-.022-1.678 2.026-1.567 2.319l1.657.806c.363-.11 2.076-2.006 1.6-2.363a3.285 3.285 0 0 0-1.69-.762zm-2.515 3.869c-1.159.05-3.029 1.891-4.1 2.525-1.865 1.1-.351 1.3.61 1.918.289.186.6-.291.349-.53-.818-.769-.094-.657.508-.287s.561-.463-.025-.848c-.522-.343-.017-.69.613-.324.848.494.28.83 1.3-.059.707-.616 3.413-2.394.751-2.394zm8.943-8.726c-.237-.39-.669-.638-.8-1.126-.221-.847-2.183.327-2.48.654-1.825 2.005-2.21 1.976-3.135 4.363-.161.417 1.209.654 1.492.811 1.327.734.817.728 3.2-1.394.633-.565-2.484-2.684-1.275-2.655.425.01 2.138 1.348 2.067.808-.148-1.126-1.265-1.27-1.092-1.642.289-.616 1.59.5 2.021.181zm-13.737 13.92c-.03-2.6-7.3 1.822-6.947 5.19.053.5-.393 1.292-.27 1.566s1.243 1.636 1.51.913a3.781 3.781 0 0 0 .454-1.33c-.019-1.321 1-2.928 2.486-2.589.954.218.564-1.377 2.414-2.982a.862.862 0 0 0 .352-.768zm-8.746 5.014a4.708 4.708 0 0 1 1.717-3.594 47.545 47.545 0 0 1 7.57-5.71c3.033-1.838 5.249-5.519 6.757-8.593 2.747-5.6 9.648-4.757 10.195-4.084.572.706 3.472 2.045 1.748 2.688-2.095.783-6.379 5.068-8.416 6.756a63.562 63.562 0 0 1-4.474 4.725c-.942.823-5.258 4-5.6 4.664-.354.684-1.137.83-1.393 1.632l-.847 2.449c-1.1 1.753-.563 2.693.063 4.477.123.353.579 1.887.122 2.044-.244.083-.982-.962-1.55-1.222-.65-.3-1.848-2.679-2.3-2.461-1.193.577-2.543-.516-2.874-1.609-.286-.948-.695-1.011-.721-2.16zm15.479 13.164c-.051-.451-.642.162-.686.389-.126.658-1.363 3.043-1.145 3.165.639.355 1.781-3.181 1.831-3.554zm-15.04 3.573a14.293 14.293 0 0 1-5.085-4.112c-1.033-1.632-4.269-5.069-4.2-6.893.055-1.41-.766-.886.4-2.795.3-.487 1.161.008.86.785-.216.555-.081 1.43.6.73.16-.165 1.285-1.355.89-.152-.152.462-1.087 1.249-.736 1.734.676.938 1.13-.955 1.847-1.7.422-.44 1.155-.159.74.517-.459.748-2.032 2.808-.889 3.533.343.218 1.667-3.492 2.433-3.005.913.58-2.672 4.109-1 4.768.263.1.922-2.434 2.143-2.881 1.033-.378-.763 1.7-.979 3.232-.062.434.831 1.561.992.85.524-2.305 1.7-2.613 1.007-1.066-.651 1.458.292 4.176.8.647.232-1.622.945-1.259.751-.632-.714 2.321.336 4.9.43 2.523.083-2.128 1.415-2.7 1.17-2.011-.1.285-.793 3.757-.478 4.017 1.059.872.425-2.5 1.306-2.409 1.122.117-.147 2 .363 3.068.644 1.343.9-2.344 1.359-2.381 1.1-.09-.27 3.261.721 3.367.353.037.769-2.955 1.149-3.335.459-.459.6.341.553.644-.07.427-.776 2.645-.377 2.841 1.115.55 2.009-5.434 2.7-5.416 1.194.032-.407 4.7-.631 5.357-.258.759 1.047 1.307 2.058-4.825.247-1.5 1.114-1.141 1-.054-.033.331-.484 2.632 0 2.8 1.172.411 1.62-3.021 1.6-3.615-.012-.31-.1-.664.23-.9.459.211.89 1.659 1.122 1.294.966-1.521 1.192-1.286.482-2.82-.327-.707 1.687.009 1.421 2.419a20.714 20.714 0 0 1-.83 4.728c-.205.459.234.215.516-.5.97-2.45 1.319-3.3 1.084-5.9-.078-.855.55-.2.724-.178 1.431.2.075 4.346-.267 5.077-.711 1.525.72 1.077 1.465-2.666.211-1.063.213-3.671.954-2.367.366.644-.427 4.393.212 3.1a8.853 8.853 0 0 0 .63-2.657c.334-.672.04-2 .476-1.575 1.55 1.5-.05 4.331.305 4.484.88.381 1.335-3.606 1.284-4.246-.158-1.914 1.756.212.874 3.183-1.117 3.759 2.386-.517 1.021-4.8-.459-1.439 2.591-.459.769 4.492-1.682 4.572 2.776-1.182 1.621-5.657-.439-1.7 1.051-.972 1.155 1.329.045.981 1.012-.335.832-1.379-.067-.388-.6-1.831-.141-2.014 1.1-.435 1.806 4.048.233 6.939l-.928 2.358c-1.335 2.328-10.843 4.864-13.586 5.177-4.393.5-11.093 1-15.142-1.061zM124.85 8.53a7 7 0 0 0-3.492-1.891c-.467-.009-3.278-.065-3.335.463a12.774 12.774 0 0 1 5.793 1.046 2.864 2.864 0 0 0 1.035.382zm-7.49-.681c-2.242 0-.531.822-1.37.935-1.677.227.055.706.209 1.1.045.115.2.1.317.1 2.036.017 8.582 1.79 8.131 2.767-.341.74-4.145-2.957-10.2-2.368-.911.089.552.4.236.98-.285.522-2.141-.129-2.064.324s3.592 1.219 2.6 1.384c-1.4.233-4.418-1.485-4.515-.008-.03.457-1.556-.029-.969.577l3.732 1.464c1.783.351 3.652.186 5.355.93 3.072 1.343 6.076 2.119 8.109 5.046 1.171 1.687-.11-1.757-1.99-2.985-.281-.183-1.731-.915-1.5-1.36.428-.833 3.091.911 3.739 1.778.424.567 1.149-.582-3.273-2.667-.742-.351.121-.659.582-.527l2.55.754c.753.434.9.064.278-.423-.583-.458-2.061-1.339-2.391-1.983-.561-1.1 2.568.517 2.6.5.514-.366-1.438-2.261-2.233-2.666-.3-.155-3.444-1.282-3.226-1.84.235-.6 2.269.593 2.736.5.034-1.651-6.118-2.33-7.439-2.313zm8.93 15.514c.483-1.622-1.356-2.939-2.312-3.967-1.629-1.749-6.157-3.177-8.562-3.33-1.905-.121-4.874-1.041-5.429-.83.2.774 3.483.981 3.74 1.649-1.409.937-5.494-2.21-6.038-1.219-.489.892 4.121 1.507 3.227 1.881-.5.211-5.49-1.019-4.676-1.987 1.847-2.2-.043-1.434 3.843-3.762 1.393-.835.637-1.537 3.734-3.015 1.469-.7.621-2.539 2.768-3.1.974-.252 2.361-1.148 3.021-1.048 2.1.318 2.816 1.393 4.491 1.613 2.259.3 5.182 6.374 5.707 8.109.792 2.617.393 6.49-.246 9.049-1.51 6.036-7.621 12.143-12.431 15.782-3.267 2.473 1.157-3.446.389-8.626-.14-.946 1-.844 1.011 2.242.005 1.252.506.5.465-.212-.05-.877.415-3.633-.17-4.187-1-.946-.822-1.3-2.815-2.971-1.352-1.13 1.888.061 2.844 1.577.413.654.984 1.015 1.172 1.81.384 1.624.051 4.017.481 3.095.992-2.129-.407-4.56.525-4.5 1.509.093 1.176.085 1.331 2.291.1 1.444.548-.067.565-.794.114-4.838.138-1.475 1.038-4.173.308-.922-1.633-1.236-1.377-1.889.215-.55 1.572 1.657 1.524-.044-.045-1.6-1.08-2.1-.956-2.306.4-.69 2.781 1.93 3.139 2.863zM28.043 12.496c-.072.459-.746-.269-.256-.246a.247.247 0 0 1 .256.246zM2.683 34.353c-.572.013.473-.889.228-.255a.408.408 0 0 1-.228.255zm16.917-16.1c-.683-.054.214-.843.179-.182a.182.182 0 0 1-.179.182zm6.63-2.383c-.145.55-.783-.388-.3-.324a.332.332 0 0 1 .3.324zm11.671 15.718c-.075.55-.8-.2-.38-.31a.344.344 0 0 1 .38.31zm-14.906-14.34c-.254.657-.856-.839-.226-.4a.446.446 0 0 1 .226.4zm-7.869 23.964c-.171.806-.748-.616-.309-.5.253.07.273.291.309.5zm5.936-23.749c-1.025-.115.176-1.233.245-.189.009.129-.1.2-.245.189zm8.663-2.689c-.266.62-.983-.905-.532-.674.219.112.57.4.532.674zm3.093-.806c-.161.643-1-.532-.452-.526a.568.568 0 0 1 .452.526zM9.477 24.459c-.31.946-.973-.975-.269-.449a.56.56 0 0 1 .269.449zm18.232 13.007c-.156.571-1.06-.836-.459-.648a.785.785 0 0 1 .459.648zM12.942 40.6c.01 1.041-1.045-.414-.3-.364.237.016.284.2.3.364zm15.449-5.067c.724.1.345 1.468-.081.52-.077-.169-.176-.459.081-.52zm-19.4 4.956c-.043.714-.745.657-.493-.1.111-.331.464-.228.493.1zM7.276 29.266c-1.009.071-.287-1.38.215-.339a.232.232 0 0 1-.215.339zm8.519-7.554c-.128.923-1.1-.882-.418-.649a.748.748 0 0 1 .418.649zm22.578-8.539c-.547.69-1.219-.8-.326-.419.18.076.335.172.326.419zm-6.7 1.464c.105.921-1.447-.812-.524-.593a.853.853 0 0 1 .524.593zM7.237 38.199c-.322 1.117-1.356.162-.333-.269a.245.245 0 0 1 .333.269zm.264 1.54c.608.1-.49 1.288-.624.789a.733.733 0 0 1 .624-.789zm-4.976-3.387c-.263-1.388.994-1.349.723-.97-.226.319-.466.627-.723.97zm8.412 4.825c-.208 1.494-1.091-.482-.282-.459.238.006.27.22.282.459zM6.844 37.12c.008.761-1.464.938-.421-.173.225-.239.376-.071.421.173zm10.831 1.091c-.045.937-1.566-.422-.645-.526a.63.63 0 0 1 .645.526zm20.774-5.7c.81.087 1.133 1.587.55 1.11-.156-.128-.974-.922-.55-1.11zm4.56-20.942c-.247-.018-1.151-.853-.541-.9.464-.037 1.172.953.541.9zm-27.4 27.922c.016.905-1.509-.756-.742-.748a1.033 1.033 0 0 1 .742.748zm-9.568-9.557c.99.122 1.186.9-.448.384-.351-.111.327-.378.448-.384zm33.6-17.921c-.169.815-1.464-.686-.673-.7a.865.865 0 0 1 .673.7zm-16.661 26.7c.041-.847 1.3.52.734.859-.368.219-.694-.674-.734-.859zm3.051-6.426c.861.035.69 1.969-.3.446-.115-.178.05-.434.3-.446zm-19.592-.909c-.054.345-1.568.558-1.341.157.163-.288 1.449-.619 1.341-.157zm18 3.692c-.048.625-1.05-.1-.822-.714.233-.631.845.426.822.714zm15.779-2.963c-.724-.769-1.448-1.539-2.233-2.369a4.292 4.292 0 0 1 2.224 2.382l.012-.012zm-7.109 4.113c-.747.986-2.056-2.888-.108-.252a1.075 1.075 0 0 1 .108.252zm-27.483.844c-.815-.132.839-1.791.9-.945a.991.991 0 0 1-.9.945zm-.69-3.316c-.525-.148.837-1.607 1.111-1.021.289.618-1 1.021-1.111 1.021zm3.528-8.057c.781-.021 1.12 1.728.566 1.335-.213-.151-1.176-1.136-.566-1.335zm-.155 2.236c-.074.83-1.117-.155-1.152-.545-.083-.942 1.038.1 1.152.545zm24.722-10.844c-.252-.149-1.183-1.335-.914-1.585.513-.478 1.54 1.679.914 1.585zM2.493 37.52c-.124-1.454 1.744-1.586.943-.76-.292.3-.943 1.931-.943.76zM40.63 9.12c2.109.82 1.236 1.641-.2.525-.263-.2-.162-.515.2-.525zM3.07 38.82c.119-1.176 1.579-1.923.9-.746-.065.113-.9 2.171-.9.746zm16.739 3.77c-.093-1.769 1.4 1.318.517 1.4-.428.038-.484-1.237-.517-1.4zm14.558-22.928c-.314 1.513-1.214-1.332-.675-1.486.521-.149.67 1.119.675 1.486zm-2.811 14.527c-.478 1.1-3.222-4.331-.773-1.148l.773 1.148zm-10.614 5.9c-.07 1.079-1.731-1.034-1.092-1.405.475-.276 1.084 1.071 1.092 1.405zm20.09-28.885c-.14 1.153-2.541-1.3-1.493-1.035.471.118 1.387.5 1.493 1.035zM6.372 34.382c1 0-1.686 2.118-1.438 1.067a1.68 1.68 0 0 1 1.438-1.067zm20.122 3.463c-.158 1.076-2.02-1.732-1.517-2 .389-.21 1.4 1.683 1.517 2zm-5.732-15.233c-.283 1.781-1.426-1.543-.869-1.731.54-.181.845 1.379.869 1.731zm-3.723 17.243c.032-1.856 2.143 1.128 1.2 1.318-.647.131-1.049-.963-1.2-1.318zm1.963-8.413c.533-.036 1.845 2.5 1.059 2.336l-1.5-2.046c.083-.187.294-.209.445-.29zm-15.158 8.7c.009-2.119 2.325-2.3 1.078-1.047-.6.6-.347 1.9-.741 1.922-.3.014-.316-.757-.336-.874zm34.044-5.54c-.415.7-2.765-2.286-2.19-2.594.4-.216 2.2 2.372 2.19 2.594zm-15.276 5.2c-.44.922-2.181-3.081-2.291-3.46-.306-1.046 2.331 2.767 2.291 3.46zm8.513-3.125c-.037.3-.246.6-.45.255-.225-.378-2.5-3.231-1.993-3.561.264-.173 2.478 3.118 2.443 3.306zm.424-5.085l.626.629c.5.927 2.836 3.434 2.681 3.611-.546.625-3.477-3.517-3.477-4.048a.19.19 0 0 1 .17-.192zm1.468-1.069l3.638 4.906c.456.458-.44.25-.795-.211-.211-.275-3.713-4.451-2.843-4.695zm-15.347 2.5c-.467.127-.248.783-.836.423-.928-.568-.3.63-.324.889-.133 1.33-1.573-.8-1.692.157-.106.853-.537-.194-.853-.013-.585.335.084 1.61-.639 1.035-.4-.32-.75.8-.955 1.011-.393.4.761 1.948-2.947 2.071-.582.02.177-.664.343-.735.525-.225 1.787-1.454 1.768-2.105-.043-1.423 2.032-2.52 3.211-2.687 2.409-.342 3.051-1.991 3.964-.19.547 1.079-.388.587-.865.2-.053-.043-.117-.086-.174-.055zm-5.292-8.032c-.01-.56-.8-1.914-.193-1.6.539.282.846 2.67 1.163 1.608.227-.759-.645-2.4-.088-2.19.369.142 1.079 1.542 1.166 1.489.635-.389-.948-2.468-.58-2.736.484-.351.935 1.965 2.2 1.41 1.447-.635.454-1.5.111-2.629-.364-1.2 1.134.438 1.337 1.329.2.872 1.389.695.631-.881-.157-.328-.585-.84-.522-1.225.2-1.218 1.719 2.914 1.72 2.918.5 1.757-3.676 1.5-5.293 3.128a8.861 8.861 0 0 1-2.325 1.6c-1.1.558-1.372-.742-1.8-1.661-.358-.765 1.079.214.66-1.09-.274-.852.583-.472 1.077.892.239.66.742.117.742-.369zm20.144-6.171c.227 2.85-4.645 1.064-10.266 3.659-.828.382-1.055-1.933-1.828-3.094-.518-.779.618-.506 1.6 1.56.436.919 1.393.835-.245-1.943-.689-1.169 1.289.095 1.666 1.042.475 1.195 1.186.948.631-.3-.111-.251-.831-1.258-.454-1.447.6-.3 1.132 1.889 1.666 2.119.66.283.492-.684.326-.985s-1.228-1.658-.94-1.986c.474-.539 1.787 1.79 1.907 2.025.221.434 1.32.4 1.084-.121-.327-.724-.324-1.589-.932-2.195-.716-.712.8-.926 1.945 2 .32.822 1.947.587-.511-2.6-.517-.669.058-.87.787.017a12.631 12.631 0 0 1 1.839 2.509c.31.681 2.268.577-.707-3.107a.252.252 0 0 1 .338-.373 5.244 5.244 0 0 1 2.054 2.457 4.518 4.518 0 0 1 .04.76zM53.109 5.345c-.134-.6-1.558-.688-1.219-.331.15.156 1.216.98 1.219.331zM51.18 7.872c.244-.212.33-.4.058-.62-3.117-2.528-3.12-1.147-2.656-1.033 1.025.251 1.722 1.128 2.6 1.653zm2.206-.594c-.123-1.021-3.641-2.6-2.965-1.667.531.736 1.577.807 2.1 1.614.148.23.864.6.866.054zm-8.517-.95a18.166 18.166 0 0 1 3.458 2.983c.995 1.327.756-.385-.607-1.59-.817-.723.309-.8 2.069.716.6.518-.426-1.419-.839-1.552-.271-.087-2.218-1.29-2.465-.88-.146.243.723.436.4.833-.375.457-1.37-.836-2.013-.51zm-2.6 1.216c-1.76 0 1.725 1.358 2.925 2.986 1.5 2.04.827-.923-.515-1.718-.4-.235-.012-1.37 1.884.714.264.29 1.572 1.056.96.2-1.969-2.747-4.158-3.234-3.831-2.568.561 1.138-.922.444-1.424.384zm8.928-3.43c2.2-.2 6.173 1.176 4.657 4.147-.6 1.171-2.763.56-3.065 1.434l-3.31 1.616c-1.191.322-6.35 3.137-6.859 4.044-.346.617-6.429 5.173-7.121 4.024-.662-1.1-.641-1.95-1.651-3.277-1.855-2.435.424-1.3 1.917 1.895.293.626.978.012.631-.676a8.879 8.879 0 0 0-1.2-2.315c-.651-.7.718-.7 2.244 2.348.186.37 1.069.706-.048-2.133 0 0-1.207-1.386-.384-.938 1.8.981 2.06 2.549 2.562 2.35 1.118-.442-2.03-3.259-.572-2.609 1.033.46 1.581 1.663 1.993 1.305s-1.477-2.016-1.071-2.443c.514-.541 1.9 1.6 2.193 1.475.359-.157-.377-1.737-.6-1.955-.829-.8.467-.811 1.86.88.16.194.464.075.37-.183-.392-1.077-.483-1.716.848-.771.95.675.685-.867-3.576-4.345-.582-.475-3.725 1.564-6.187 1.965-.773.126-.451 1.162-1.3.933-.468-.126-2.533-.222-2.368.649.145.773-.545-.113-1.375.3-.32.159-1.791.316 2.891-1.874a62.254 62.254 0 0 1 7.523-3.459c3.19-1 7.576-2.307 11.008-2.382zM32.395 24.369c-.822-.07.248 1.294.321.391a.354.354 0 0 0-.321-.391zM18.363 29.42c1.592-.1-.745-1.416-.551-.44a.559.559 0 0 0 .551.44zM56.4 10.83c-.822 0-.011.933.419.669.922-.567.252-.566-.419-.669zm2.635-1.534c.734.2 1.024-1.078-.269-.832-.564.108-.367.793.269.832zm-3.211 2.687c-.05-.657-2.1-1.848-.763.216.154.238.773.038.763-.216zm-18.833 10.19c1.79.062.486-2.071-.348-.631a.394.394 0 0 0 .348.631zm3.354-1.045c-.613-1.317-2-1.373-1.507-.735.278.36 1.171 1.857 1.507.735zM16.928 30.1c1.357-.244-.368-1.645-.853-1.107-.254.282.121 1.168.853 1.107zm13.8-5.9c.042-.545-1.336-2.377-1.793-1.666-.141.219.767.9.913 1.087.16.2.718 1.855.88.58zm11.534-4.7c-.664-1.171-.3-1.12-2.144-.058-.269.154.746 1.62 1.176 1.111.183-.216-1.221-1.192-.285-1.221.426-.013 1.091 1.076 1.253.169zm-28.03 10.881c-.273.037-3.042.852-2.071 1.222 1.257.479 1.095-.143 2.207-.794.4-.235.265-.375-.136-.428zm-2.379 2.018c-.028-.5-1.28.035-1.466.209-2.186 2.054-2.58 3.688-1.771 2.917a28.68 28.68 0 0 0 3.236-3.126zm23.262-10.365c-.39-.659-1.575-.092-2.721.07-1.922.273-1.092.335-.292 1.4.383.508 1.316-.011 1.216-.62a.415.415 0 0 1 .713-.341c.2.186 1.12-.247 1.084-.507zm9.819-4.462c-.072-.283-.748-1.653-1.039-.908-.389 1-1.938 1.19-1.31 1.859.718.764.489.941 1.724.093a1.7 1.7 0 0 0 .625-1.044zm-17.236 5.095c-.376.081-5.383 1.624-4.5 2.164.722.442.88 1.879 1.691 1.17.732-.639-1.5-1.309-.109-1.746.718-.226 2.413 1.654 2.245 1.046-.064-.232-.482-1.106-.194-1.271.661-.38.5 2.209 1.839 1.081.277-.235-.41-.827-.013-1.037.293-.154 1.083 1.482 1.016.7-.062-.719-1.252-2.1-1.973-2.112zm17.981-6.034c.065-.069.166-1.668.938-.743.755.9.277 1.127 1.409-.061.566-.6-.623-.79-.189-1.219.537-.532.492.922 1.458.284 1.248-.826-.014-.808.518-1.152.208-.135 1.426 1.015.8-.3-.212-.444.44-.285.613-.162 1.228.868.2-.572.347-.732.484-.531.79 1.129 1.079.057.3-1.115.738.258 1.12-.277.127-.178.434-.242.343-.557-.233-.808-1.566 0-2.055.161a36.416 36.416 0 0 0-7.192 3.78c-.538.441.514.773.812.924zm-24.331 9.866c1.223.148-.153-1.248.862-.716.168.087 1.155 1.167 1.023.417-.4-2.227-2.931-.659-4.774-.517s-5.466 1.945-6.446 3.52c-.82 1.318-1.095-.641-3 1.24-.756.748-.191 2.325.67 1.4a15.877 15.877 0 0 1 2.59-1.7c3.124-2.315 4.69-1.863 4.364-2.541-.368-.771.482-.45.753-.044.469.7 1.228.268 1.081.077-1.5-1.922.938-.61 1.654-1.244.262-.233.81.228 1.221.112zm40.16-17.115c.126 1.573-3.08 3.171-4.381 3.391-1.911.323-4.377 1.953-4.657 1.964-1.25.055-7.364 4.633-8.827 5.435-1.371.751-4.926 4.038-6.458 3.084-.267-.166-.843-.035-.588.367 1.457 2.29-16.45 5.223-17.559 6.713-1.375 1.848-4.146 1.55-5.141 2.263-2.339 1.676-2.18 1.034-3.121 3.521-.384 1.017-2.454 2.28-3.165.969-.884-1.633.133-2.913-.447-3.633-.443-.55.436-4.228 2.708-4.992a7.965 7.965 0 0 0 3.143-1.353c1.068-.995 4.2-2.212 5.638-2.6a13.9 13.9 0 0 0 3.144-.812c5.567-3.054 10.137-1.682 14.958-3.764 1.076-.465 2.391-.646 3.317-1.4.773-.626 1.642-.979 2.17-1.886 1.11-1.909 7.667-4.981 9.765-5.833 1.963-.8 4.047-.85 4.274-1.772.565-2.289.145-1.746 2.735-1.79.624-.011 1.293.535 1.675.493.639-.069.8 1.152.817 1.63zM36.801 44.698c.331.059.372-.8.1-.672s-.473.522-.1.672zm8.833-4.088c.016-1.132-.763.489-.3.534.243.024.268-.385.3-.534zm1.112.287c-.087 1.156 1.3-.333.305-.5-.235-.038-.272.353-.305.5zm4.294-3.093c-.436-.045-.6.933-.2.978.686.077.755-.918.2-.978zm15.884-23.275c-.03-.538-1-.651-1-.075 0 .541 1.043.745 1 .075zm-.742 9.852c-.925-2.724-1.891-1.531-.266.021l.266-.021zm-34.6 21.391c.176-.313.583-2.618-.227-1.877-.373.341.133 1.467.227 1.877zm32.637-28.389c-.053-.729-1.425-.831-1.118-.178.17.362 1.177.978 1.118.178zm2.765 5.54c.077-.351-.553-1.732-.9-1.583-.384.162.576 2.666.9 1.583zm-1.683-5c-.83.019-.164 1.15.442 1.122.895-.041.1-1.137-.442-1.122zm-25.075 23.12c.219-1.037-.977-1.484-.839-.927.1.4.107 1.569.641 1.565.279 0 .2-.432.2-.638zm-6.9 3.545c-.253-2.408-1.338.86-.483.924.507.039.448-.577.483-.924zM60.809 14.1c-.208.028-.868-.006-.86.348.008.335 2.189.674 2.3.221.123-.509-1.131-.545-1.439-.569zm-5.964 21.48a5.884 5.884 0 0 0-.692-2.327c-.211-.2-.865-.035-.715.307.312.707.655 2.944 1.219 2.766.246-.078.175-.487.188-.747zm-1.778 1.079c.032-2.858-1.454-2.623-1.145-1.289.182.791.457 2.3.818 2.271s.3-.723.327-.982zm6.686-21.34c-2.434.193 2.216 1.322 2.459 1.444.267.135 2.292-.492-2.459-1.444zm2.374-2.529c-.746.056-1.509.471-.451.619 1.8.251 3.722 1.394 3.8.421.045-.6-1.041-.632-1.482-.727a9.932 9.932 0 0 0-1.864-.313zm.913-.936c1.406-.084 4.335 1.042 3.764.135-.616-.978-2.9-1.187-3.835-.686-.259.138-.6.12-.785.406.255.336.608.049.856.145zm1.054 3.076c-.889-.085-.186.578.258.74 1.083.4 2.95 2.525 3.341 2.273.318-.205-1.592-3.008-3.6-3.013zm-6.769 1.515l-.358.151c-.14.591 4.385 1.165 5.623 2.31a26.547 26.547 0 0 1 2.557 2.1c.532.632 1.361-.735-2.442-2.927a13.529 13.529 0 0 0-5.38-1.634zm-7.839 22.163c0-2.289-1.9-5.511-3.587-6.989-2.984-2.62-2.662-3.95-6.156-6.4-.184-.128-1.231.218-.563.731 4.553 3.492 3.806 5.6 6.472 7.19s2.575 6.149 3.292 6.218c.455.044.5-.483.542-.748zm5.46-7.634c-.177-.4-1.508-1.59-1.009-2 .847-.7 3.282 4.834 3.275 3.717-.011-1.434-2.858-5.263-1.447-4.457 1.3.741 2.4 4.337 2.584 3.6.392-1.559-1.793-3.477-1.163-3.882.757-.486 2.069 3.736 2.433 3.681 1.071-.163-1.245-4.115-2.328-4.752-1.159-.682 1.612-1.752 3.489 2.906.334.829.868-1.375-1.376-3.624-.235-.235-.517-.478-.469-.88 1.489.076 3.412 3.773 3.592 3.725.489-.129-.4-2.489-.7-2.865-.788-.982-2.729-1.823-2.3-2.447.458-.667 3.38 1.236 4.228 4.006.2.651.833-.335.434-.77-.915-1-.435-2.044-2.377-3.438-1.168-.839.016-1.9 1.894.482.205.26 1.524 2.668 1.613 1.772.144-1.437-3.258-3.647-2.731-4.278.514-.614 1.536 1.47 2.043.9.853-.952-2.651-2.648-3.156-3.215l-5.337-1.894c.165.462 2.162 1.4 1.129 1.348-1-.047-3.93-1.132-4.08-.983-.057.056.786 1.624-.544.754-.486-.319-.765-.677-1.379-.389-.492.23.971.994.628 1.4-.463.55-1.392-1.357-2.366-.8-.537.308.853.752.555 1.186-.417.607-1.254-1.136-1.846-.549-.326.323.9.879.83 1.251-.118.6-1.7-1.252-2.2-.482-.222.345 2.162 1.477 1.1 1.6-.6.066-1.849-1.427-2.186-.838-.418.732-.226.622.343 1.12.951.831-.08.944-1.189.089-.5-.384-.743.586-1.093.6-1.918.068-.693 1.145-1.223 1.167-.632.026-.424-.681-1.462.011-.657.437 1.66.986 1.12 1.529s-1.332-1.494-1.909-1.023c-1.216.992-.192.246 3.186 3.558 1.475 1.446 1.575 2.627 3.816 4.251 2.571 1.861 2.51 6.36 3.318 4.933.7-1.237-1.36-4.812-2.337-5.678-.116-.1-.264-.2-.261-.4.948-.023 3.126 1.779 3.46 1.3.345-.494-1.72-1.149-1.3-1.724.321-.443 1.917.881 2.162 1.128.615.619 1.736-.2-.332-1.583-.711-.475.31-.633.934-.129a5.518 5.518 0 0 0 1.94 1.067zM40.209 32.12c1.123 1.079 2.935 2.089 3.418 3.58.386 1.193.957 2.319 1.261 3.541.148.593.943.207.691-.634-.622-2.084-1.261-4.228-2.948-5.707-.152-.132-4.275-4.731-3.137-4.3a1.061 1.061 0 0 1 .533.448c2.1 3.393 6.273 5.577 6.859 9.858.045.326.916.918.294-1.554-1.079-4.293-3.286-4.281-5.252-7.486-3.275-5.34-4.884-3.724-4.451-3.321.216.2 1.625 1.15 1.277 1.5-.485.5-1.574-1.66-2.247-1.336-.86.415.723 1.005.231 1.516-.519.538-.918-1.065-1.385-.69-1.074.864 1.25 1.84.712 2.365s-2.5-3.194-2.281-1.087c.055.523-.765-.317-1.106-.077-.6.42.4.929.03 1.165-.519.334-.682-1.734-2.565-1.029-.308.115.58 1.616-.036 1.206-.548-.366-.86-1.617-1.554-.588-.027.04.327 1.406-.225.676-.446-.591-.616-.591-1.374-.342-.418.137 1.055 1.717.442 1.945-.488.181-.9-1.878-1.633-1.758-.616.1.487 1.205.039 1.669-.7.721-1.861-1.817-2.087-.946-.069.264.535 1.4-.387.709-1.041-.778.522 2.105-.715 1.262-.261-.178-1.06-1.463-1.321-1.291-.239.157 1.147 1.818.616 2.207-.655.478-1.71-2.005-1.859-2.356-.214-.5.122-.415.461-.652 2.277-1.591 5.122-1.3 7.609-2.313 4.329-1.765 9.4-2.257 13.024-5.5 2.633-2.354 6.066-3.683 8.852-5.848 1.089-.847 2.507-1.1 3.619-1.927 1.332-.99 2.847-.748 3.928-1.521.911-.652 2.643-1.005 3.164-2.024.713-1.394 1.276-.23 1.473-3.36.025-.4 1.021-1.757 1.478-1.157.481.63 1.389-.492 2.668 1.7.3.515 1.064.421.869 1.088-.211.721.849.6.779 1.321-.065.658 1.139.774.542 1.565-.242.32.439 1.474.708 1.7.78.649-.082.945.322 1.4 1.454 1.639-1.053 8.675-1.385 9.006a6.294 6.294 0 0 0-1.307 2.231c-.413 1.023-4.4 5.3-5.118 5.848-.529.4-.669 1.116-1.3 1.469l-7.626 5.879c-9.048 6.239-24.243 10.122-35.2 8.672a59.074 59.074 0 0 1-7.576-2.054c-1.127-.429-1.478-1.26-2.611-2-.562-.368-2.073-1.513-1.983-2.311.031-.272-.743 0-.62-1.437.088-1.034 1.85-2.332.708-.306a1.125 1.125 0 0 0-.042 1.146c.087-.036 1-1.857.692.206-.134.885.7.5.827 1.153.047.237.507.743.5.235-.01-1.408 1.2-2.556.939-.969-.361 2.2.907 2.448.953 2.142.059-.4-.142-2.584.667-2.394.6.141 0 2.775.729 2.682.2-.026.591-3.691 1.153-.286.038.232.157 1.436.593.774.714-1.085-.182-2.348.216-3.517.179-.527.567.364.6.515.266 1.36.375 3.259.893 2.948 1.5-.9-.078-2.258.59-2.9 1.01-.973 1.088 3.235 1.118 3.626a.445.445 0 1 0 .888-.021l-.385-4.215c.174-.951.938.905 1.018 1.582.047.4.05 3.562.966 3.253.707-.239-.835-4.6.027-4.75.828-.145.268 3.283 1.465 2.724.657-.306.23 2.057.884 1.908 1.087-.246.029-4.66.07-5.213.087-1.168 1.172.791 1.341 2.838.083 1 1.105.043.773-1.527-.6-2.816.419-1.52.533-1.065.678 2.7.352 4.62.857 4.7 1.239.189-.288-5.572-.076-5.732.466-.35.824 1.909 1.152 1.8.987-.34-1.061-3.317-1.458-4.02s.344-.571.624-.036c1.672 3.2 1.618 2.112 3.185 6.617.036.1.012.235.152.291.631-.472-.037-3.057-.266-3.647-.136-.353-1.169-2-.621-2.339 1.113-.682 2.589 5.766 2.418 6.744-.081.465.607.38.6-.249-.089-5.65-.086-2.97-1.346-6.48-.239-.665.585.016.7.187.212.323.6 1.481 1.128 1.278.649-.246-1.013-1.832-1.216-2.04-.475-.484.148-1.185.525-.781.607.65 1.4 1.146 1.663 2.074.061.216 1.313.348.92-.379-.062-.113-1.271-1.793-.507-1.616 1.518.351 2.8 4.463 2.572 6.858-.078.824 1 1.151.613-2.986-.187-1.98-2.076-4.153-1.765-4.435.717-.652 2.859 2.74 2.994 5.48.047.968.941.4.859-.136-.292-1.922-.666-4.25-2.007-5.753-.991-1.109.513-1.107 1.765 1.393 1.406 2.808 1.39 4.621 1.835 4.037.914-1.2-1.761-5.414-1.8-5.618-.252-1.242 1.245.793 1.318.9.26.4.9.091.684-.288l-.68-1.511c.423-.634 2.184 1.126 2.7 3.947.924 5.012 1.648-.543-.841-4.428-1.026-1.6 1.7-1.037 2.954 5.177.13.651.864-1 .551-1.764l-1.412-3.79c-.321-1.259-1.792-1.691-2.086-2.96l-.014.016zM128.756 9.6a8.319 8.319 0 0 0-2.533-3.1c-1.809-1.385-5.46-2.965-7.8-2.327-6.868 1.869-5.256-.2-7.033-1.021-3.364-1.541-3.779-2.142-8.2-1.041-9.577 2.393-11.256 3.757-19.056 9.779a36.437 36.437 0 0 0-4.732 4.769c-3.582 4.015-6.006 10.625-4.046 15.955 4.638 12.6 15.562 15.329 28.072 13.222a36.188 36.188 0 0 0 16.326-7.623c2.764-2.17 4.313-4.521 5.881-6.038 6.405-6.2 6.121-14.512 3.12-22.574zm-3.33 25.33a36.562 36.562 0 0 1-5.685 5.323 45.85 45.85 0 0 1-22.057 7.831c-14.09 1.492-27.288-8.593-23.892-23.487 1.065-4.669 3.881-9.457 9.388-13.779 6.489-5.1 11.643-8.038 19.608-10.191 9.146-2.47 10.207 3.253 12.862 2.623 3.375-.8 5.282-1.189 8.564.542 3.17 1.673 3.294 1.588 5.544 4.352a2.981 2.981 0 0 1 .4.665c4.543 10.205 2.383 18.5-4.737 26.121zm-72.5 6.277c8.6-5.032 21.18-17.489 16.483-28.367-1.25-2.9-1.377-3.387-3.806-5.7-2.285-2.17-3.866-.394-5.021-.511-.713-.072-3.683-.545-3.923-1.373-1.14-3.944-15 .151-17.566 1.1-3.287 1.217-6.433 2.749-9.591 4.256-2.005.957-9.526 5.174-10.81 6.7-.713.843-2.988.937-4.752 1.831a37.817 37.817 0 0 0-7.112 5.253c-2.878 2.931-5.53 7.658-5.277 12 .218 3.725 5.074 10.734 9.08 11.7 1.493.359 2.987.719 4.476 1.1 13.306 3.367 26.406-1.318 37.817-7.981zm-39.217 9.841c-2.148-.447-6.131-1.855-7.756-3.466C3.747 45.395.186 40.492.016 37.174a19.124 19.124 0 0 1 3.848-11.961c4.308-6.115 12.05-7.911 13.568-9.1a59.876 59.876 0 0 1 16.306-9.336c7.5-2.853 10.448-3.691 18.412-4.451 4.97-.479 6.252 3.014 8.088 2.66 5.038-.976 8.565 1.655 10.211 6.127a5.636 5.636 0 0 0 .211.526c4.4 9.111-2.242 17.862-8.288 24.239a46.3 46.3 0 0 1-7.774 6.144c-11.949 8.165-26.546 12.015-40.888 9.022z"/></svg>