<svg xmlns="http://www.w3.org/2000/svg" width="180.236" height="50.93" viewBox="0 0 180.236 50.93"><defs><style>.a{fill:#231f20;}</style></defs><g transform="translate(-2.5 -144.178)"><path class="a" d="M84.122,241.435c0,1.278-.753,1.857-2.473,1.857-1.51,0-2.359-.557-2.359-1.789s.913-1.752,2.368-1.752h1.278v-.57c0-.721-.543-.881-1.369-.881a6.1,6.1,0,0,0-1.218.1c-.351.068-.429-.023-.429-.374v-.16c0-.351.091-.456.415-.5a5.883,5.883,0,0,1,1.164-.091c1.565,0,2.624.456,2.624,1.9Zm-1.186-.776H81.658c-.789,0-1.173.228-1.173.821,0,.684.548.8,1.141.8.753,0,1.31-.119,1.31-.913Z" transform="translate(-41.751 -50.619)"/><path class="a" d="M99,242.375c0-.392.082-.5.456-.406a6.114,6.114,0,0,0,1.7.224c.767,0,1.081-.119,1.081-.5,0-.3-.173-.456-.744-.7l-1.255-.557a1.556,1.556,0,0,1-1.15-1.579c0-1.068.662-1.579,2.218-1.579a4.566,4.566,0,0,1,1.369.173c.4.114.488.187.488.579v.141c0,.392-.091.5-.456.392a4.466,4.466,0,0,0-1.369-.183c-.78,0-1.022.137-1.022.456s.151.42.548.593l1.369.579a1.614,1.614,0,0,1,1.241,1.638c0,1.113-.7,1.624-2.345,1.624a5.807,5.807,0,0,1-1.592-.2c-.383-.1-.456-.173-.456-.57Z" transform="translate(-52.468 -50.618)"/><path class="a" d="M111.409,232.885c0-.42.1-.525.525-.525h.151c.42,0,.525.1.525.525v2.441a2.158,2.158,0,0,1,1.8-.721,1.827,1.827,0,0,1,2.058,2.008v3.34c0,.415-.1.52-.525.52h-.16c-.42,0-.52-.1-.52-.52v-3.171c0-.767-.374-1.081-1.232-1.081s-1.428.36-1.428,1.465v2.788c0,.415-.1.52-.525.52h-.151c-.42,0-.525-.1-.525-.52Z" transform="translate(-59.21 -47.945)"/><path class="a" d="M129.772,241.435c0,1.278-.753,1.857-2.473,1.857-1.51,0-2.359-.557-2.359-1.789s.913-1.752,2.373-1.752h1.278v-.57c0-.721-.548-.881-1.369-.881a6.1,6.1,0,0,0-1.218.1c-.347.068-.429-.023-.429-.374v-.16c0-.351.091-.456.42-.5a5.774,5.774,0,0,1,1.159-.091c1.57,0,2.624.456,2.624,1.9Zm-1.182-.776h-1.278c-.789,0-1.173.228-1.173.821,0,.684.543.8,1.136.8.757,0,1.314-.119,1.314-.913Z" transform="translate(-66.571 -50.618)"/><path class="a" d="M139.576,242.6c0,.415-.1.52-.52.52H138.9c-.42,0-.525-.1-.525-.52v-3.313c0-1.3.7-2.053,2.195-2.053a1.973,1.973,0,0,1,.233,0c.4.046.488.151.488.548v.164c0,.392-.091.456-.488.406a1.414,1.414,0,0,0-.233,0c-.812,0-1,.36-1,1.022Z" transform="translate(-73.879 -50.594)"/><path class="a" d="M151.665,240.2c-.046.429-.16.534-.593.534h-3.226v.256c0,.849.488,1.182,1.661,1.182a7.014,7.014,0,0,0,1.51-.183c.383-.1.456,0,.456.406v.151c0,.392-.091.456-.456.57a5.873,5.873,0,0,1-1.51.183c-1.93,0-2.856-.707-2.856-2.482V239.8a2.25,2.25,0,0,1,2.578-2.519,2.17,2.17,0,0,1,2.459,2.4A4.554,4.554,0,0,1,151.665,240.2Zm-3.819-.456h2.715v-.292c0-.789-.5-1.15-1.369-1.15s-1.346.36-1.346,1.15Z" transform="translate(-78.375 -50.62)"/><path class="a" d="M160.55,232.885c0-.42.1-.525.525-.525h.137c.42,0,.525.1.525.525v7.068c0,.415-.1.52-.525.52h-.137c-.42,0-.525-.1-.525-.52Zm3.112,2.336a1.164,1.164,0,0,1,1.081-.488h.2c.525,0,.57.091.224.488l-1.615,1.825a.633.633,0,0,0-.233.415.7.7,0,0,0,.219.411l1.862,2.145c.347.4.3.488-.224.488h-.2a1.164,1.164,0,0,1-1.081-.488l-1.314-1.533a1.506,1.506,0,0,1-.456-1.068,1.31,1.31,0,0,1,.456-.99Z" transform="translate(-85.933 -47.945)"/><path class="a" d="M174.09,232.885c0-.42.1-.525.525-.525h.151c.42,0,.52.1.52.525v2.441a2.177,2.177,0,0,1,1.8-.721,1.827,1.827,0,0,1,2.058,2.008v3.34c0,.415-.1.52-.525.52h-.151c-.42,0-.525-.1-.525-.52v-3.171c0-.767-.37-1.081-1.227-1.081s-1.433.36-1.433,1.465v2.788c0,.415-.1.52-.52.52h-.151c-.42,0-.525-.1-.525-.52Z" transform="translate(-93.294 -47.945)"/><path class="a" d="M192.442,241.435c0,1.278-.753,1.857-2.473,1.857-1.51,0-2.359-.557-2.359-1.789s.913-1.752,2.373-1.752h1.278v-.57c0-.721-.548-.881-1.369-.881a6.1,6.1,0,0,0-1.218.1c-.347.068-.429-.023-.429-.374v-.16c0-.351.091-.456.415-.5a5.883,5.883,0,0,1,1.164-.091c1.57,0,2.624.456,2.624,1.9Zm-1.182-.776h-1.278c-.789,0-1.173.228-1.173.821,0,.684.543.8,1.136.8.753,0,1.314-.119,1.314-.913Z" transform="translate(-100.645 -50.619)"/><path class="a" d="M202.225,242.606c0,.415-.1.52-.525.52h-.151c-.42,0-.52-.1-.52-.52v-3.112c0-1.433.789-2.254,2.532-2.254s2.519.8,2.519,2.254v3.112c0,.415-.1.52-.525.52h-.151c-.415,0-.52-.1-.52-.52v-3.112c0-.735-.219-1.141-1.323-1.141s-1.337.406-1.337,1.141Z" transform="translate(-107.942 -50.598)"/><path class="a" d="M221.609,239.716c0-1.46.849-2.437,2.683-2.437a3.278,3.278,0,0,1,.913.114c.383.1.456.187.456.579v.155c0,.392-.1.5-.484.383a3,3,0,0,0-.862-.119c-1.136,0-1.51.4-1.51,1.337V240.8c0,1.022.456,1.369,1.592,1.369a3.914,3.914,0,0,0,.913-.1c.383-.068.456,0,.456.4v.141c0,.392-.1.488-.488.579a3.751,3.751,0,0,1-.94.114c-1.88,0-2.738-.821-2.738-2.437Z" transform="translate(-119.126 -50.62)"/><path class="a" d="M232.67,240.819v-1c0-1.592.849-2.51,2.669-2.51s2.651.881,2.651,2.51v1c0,1.579-.835,2.505-2.651,2.505C233.45,243.31,232.67,242.43,232.67,240.819Zm4.107-1c0-.913-.269-1.4-1.456-1.4s-1.474.488-1.474,1.4v1c0,.913.278,1.369,1.474,1.369s1.456-.456,1.456-1.369Z" transform="translate(-125.145 -50.636)"/><path class="a" d="M248.26,242.594c0,.415-.1.52-.525.52h-.151c-.42,0-.525-.1-.525-.52v-3.112a2.051,2.051,0,0,1,2.359-2.254,1.778,1.778,0,0,1,1.743.849,1.825,1.825,0,0,1,1.743-.849c1.67,0,2.345.8,2.345,2.254v3.112c0,.415-.1.52-.525.52h-.151c-.415,0-.52-.1-.52-.52v-3.112c0-.735-.21-1.141-1.15-1.141s-1.173.406-1.173,1.141v3.112c0,.415-.1.52-.525.52h-.114c-.42,0-.525-.1-.525-.52v-3.112c0-.735-.2-1.141-1.15-1.141s-1.159.406-1.159,1.141Z" transform="translate(-132.969 -50.586)"/><path class="a" d="M268.09,239.753c0-1.7,1.031-2.473,2.647-2.473,1.78,0,2.66.776,2.66,2.473v1.008c0,1.583-.744,2.532-2.414,2.532a1.816,1.816,0,0,1-1.711-.753v2.427c0,.42-.1.525-.52.525h-.141c-.415,0-.52-.1-.52-.525Zm4.107.036c0-.913-.246-1.4-1.451-1.4s-1.478.488-1.478,1.4V240.8c0,.913.283,1.369,1.478,1.369s1.451-.456,1.451-1.369Z" transform="translate(-144.403 -50.62)"/><path class="a" d="M286.862,241.435c0,1.278-.757,1.857-2.473,1.857-1.51,0-2.359-.557-2.359-1.789s.913-1.752,2.368-1.752h1.268v-.57c0-.721-.543-.881-1.369-.881a6.1,6.1,0,0,0-1.218.1c-.351.068-.456-.023-.456-.374v-.16c0-.351.1-.456.42-.5a5.884,5.884,0,0,1,1.164-.091c1.565,0,2.624.456,2.624,1.9Zm-1.186-.776H284.4c-.789,0-1.173.228-1.173.821,0,.684.548.8,1.141.8.753,0,1.31-.119,1.31-.913Z" transform="translate(-151.982 -50.619)"/><path class="a" d="M296.635,242.606c0,.415-.1.52-.52.52h-.151c-.42,0-.525-.1-.525-.52v-3.112c0-1.433.789-2.254,2.532-2.254s2.523.8,2.523,2.254v3.112c0,.415-.1.52-.525.52H299.8c-.42,0-.525-.1-.525-.52v-3.112c0-.735-.219-1.141-1.323-1.141s-1.337.406-1.337,1.141Z" transform="translate(-159.273 -50.598)"/><path class="a" d="M310.853,241.822c.114.488.278.57.625.57.256,0,.429-.082.548-.57l.872-3.742c.091-.415.219-.52.648-.52h.151c.433,0,.516.1.411.52l-1.255,5.238c-.383,1.583-1.141,2.418-2.487,2.555-.3.036-.456-.078-.525-.429l-.032-.151c-.082-.347.032-.42.324-.456.8-.114,1.241-.6,1.5-1.5a1.391,1.391,0,0,1-.534.082c-.94,0-1.182-.607-1.405-1.488l-.976-3.847c-.1-.415-.023-.52.411-.52h.155c.429,0,.557.1.662.52Z" transform="translate(-166.469 -50.772)"/><path class="a" d="M61.175,144.188c-7.3,0-10.8,3.6-10.8,10.308v17.891c0,1.282.3,1.579,1.579,1.579H52.5c1.282,0,1.579-.3,1.579-1.579v-6.571c1.182,2.281,3.55,3.65,7.689,3.65,7.4,0,10.207-4.043,10.207-10.4V154.5C71.971,147.788,68.768,144.188,61.175,144.188Zm7.05,14.939c0,4.44-1.369,6.844-7.05,6.844s-7.1-2.414-7.1-6.844v-4.586c0-4.485,1.428-6.844,7.1-6.844s7.05,2.368,7.05,6.844ZM12.9,144.188c-7.894,0-10.4,4.44-10.4,10.4v4.586c0,7.4,3.8,10.3,11.407,10.3a24,24,0,0,0,6.753-.913c1.369-.392,1.529-.84,1.529-1.775v-.456c0-1.232-.342-1.629-1.579-1.282a26.6,26.6,0,0,1-6.721.945c-5.375,0-7.693-1.725-7.693-6.26V153.51c0-4.289,2.469-6.019,6.657-6.019,4.107,0,6.657,1.729,6.657,6.019v1.624H9.928a.639.639,0,0,0-.639.639v1.173a1.3,1.3,0,0,0,1.3,1.3H21.094c1.278,0,1.624-.246,1.77-1.529a19.7,19.7,0,0,0,.151-2.665C23.01,147.446,19.36,144.188,12.9,144.188Zm27.314,12.32-6.26-2.829c-1.875-.84-2.615-1.775-2.615-3.253,0-1.971,1.369-2.738,4.983-2.738a18.786,18.786,0,0,1,6.16.913c1.136.347,1.579.05,1.579-1.182v-.456c0-1.132-.347-1.428-1.478-1.825a18.333,18.333,0,0,0-6.165-.94c-5.964,0-8.724,1.926-8.724,6.215,0,3.65,1.775,5.079,4.563,6.388l6.06,2.87c2.281,1.086,3.194,1.926,3.194,3.55,0,2.122-1.675,2.811-5.375,2.811a26.512,26.512,0,0,1-7.246-.986c-1.182-.3-1.579.05-1.579,1.282v.392c0,1.086.347,1.483,1.579,1.825a24.764,24.764,0,0,0,6.954.913c6.356,0,9.318-1.921,9.318-6.356,0-3.728-1.939-5.206-4.946-6.584ZM87.38,144.279a10.211,10.211,0,0,0-1.579-.1c-5.964,0-8.432,3.3-8.432,8.533V167.4c0,1.282.3,1.574,1.579,1.574h.543c1.282,0,1.579-.292,1.579-1.574V152.917c0-3.354.986-5.229,4.732-5.229a12.969,12.969,0,0,1,1.529.1c1.232.2,1.529-.05,1.529-1.282v-.493c0-1.232-.246-1.579-1.478-1.725Zm64.442,12.229-6.274-2.829c-1.875-.84-2.615-1.775-2.615-3.253,0-1.971,1.369-2.738,4.978-2.738a18.815,18.815,0,0,1,6.165.913c1.136.347,1.579.05,1.579-1.182v-.456c0-1.132-.347-1.428-1.478-1.825a18.356,18.356,0,0,0-6.165-.94c-5.968,0-8.729,1.926-8.729,6.215,0,3.65,1.775,5.079,4.586,6.388l6.019,2.861c2.281,1.086,3.194,1.926,3.194,3.55,0,2.122-1.675,2.811-5.375,2.811a26.511,26.511,0,0,1-7.246-.986c-1.186-.3-1.579.05-1.579,1.282v.392c0,1.086.347,1.483,1.579,1.825a24.683,24.683,0,0,0,6.949.913c6.361,0,9.322-1.921,9.322-6.356.023-3.719-1.9-5.2-4.91-6.575Zm-49.453-12.32c-7.889,0-10.4,4.44-10.4,10.4v4.586c0,7.4,3.8,10.3,11.407,10.3a24,24,0,0,0,6.753-.913c1.369-.392,1.529-.84,1.529-1.775v-.456c0-1.232-.347-1.629-1.579-1.282a26.6,26.6,0,0,1-6.721.945c-5.375,0-7.693-1.725-7.693-6.26V153.51c0-4.289,2.469-6.019,6.657-6.019,4.107,0,6.657,1.729,6.657,6.019v1.624H99.394a.639.639,0,0,0-.639.639v1.173a1.3,1.3,0,0,0,1.3,1.3h10.495c1.282,0,1.629-.246,1.775-1.529a19.7,19.7,0,0,0,.151-2.665C112.476,147.446,108.826,144.188,102.369,144.188Zm69.617,0c-7.789,0-10.846,3.947-10.846,10.353v4.586c0,6.511,2.911,10.353,10.846,10.353,7.757,0,10.75-3.942,10.75-10.353v-4.586C182.736,148.035,179.875,144.188,171.986,144.188Zm7.054,14.939c0,4.44-1.433,6.844-7.054,6.844s-7.146-2.414-7.146-6.844v-4.586c0-4.485,1.478-6.844,7.146-6.844s7.054,2.368,7.054,6.844Zm-49.357-2.61-6.26-2.838c-1.875-.84-2.615-1.775-2.615-3.253,0-1.971,1.369-2.738,4.983-2.738a18.8,18.8,0,0,1,6.16.913c1.136.347,1.579.05,1.579-1.182v-.456c0-1.132-.347-1.428-1.478-1.825a18.333,18.333,0,0,0-6.165-.94c-5.964,0-8.724,1.926-8.724,6.215,0,3.65,1.775,5.079,4.563,6.388l6.028,2.87c2.281,1.086,3.194,1.926,3.194,3.55,0,2.122-1.675,2.811-5.375,2.811a26.512,26.512,0,0,1-7.246-.986c-1.182-.3-1.579.05-1.579,1.282v.392c0,1.086.347,1.483,1.579,1.825a24.716,24.716,0,0,0,6.949.913c6.361,0,9.322-1.921,9.322-6.356,0-3.728-1.907-5.206-4.914-6.584Z"/></g></svg>